<?xml version="1.0" encoding="UTF-8" standalone="no"?>
<svg
   xmlns:dc="http://purl.org/dc/elements/1.1/"
   xmlns:cc="http://creativecommons.org/ns#"
   xmlns:rdf="http://www.w3.org/1999/02/22-rdf-syntax-ns#"
   xmlns:svg="http://www.w3.org/2000/svg"
   xmlns="http://www.w3.org/2000/svg"
   viewBox="0 0 401.28268 104.46933"
   height="104.46933"
   width="401.28268"
   xml:space="preserve"
   id="svg2"
   version="1.1"><metadata
     id="metadata8"><rdf:RDF><cc:Work
         rdf:about=""><dc:format>image/svg+xml</dc:format><dc:type
           rdf:resource="http://purl.org/dc/dcmitype/StillImage" /></cc:Work></rdf:RDF></metadata><defs
     id="defs6" /><g
     transform="matrix(1.3333333,0,0,-1.3333333,0,104.46933)"
     id="g10"><g
       transform="translate(150.481,10.979)"
       id="g12"><g
         id="g14"><g
           id="g16" /><g
           id="g18"><g
             id="g20"><g
               id="g22"><g
                 transform="translate(-146.579,-3.217)"
                 id="g24"><g
                   transform="translate(10.7)"
                   id="g26"><g
                     id="g28"><g
                       id="g30"><g
                         transform="translate(-8.127)"
                         id="g32"><g
                           id="g34"><g
                             transform="translate(-6.475,-7.762)"
                             id="g36"><text
                               id="text40"
                               style="font-variant:normal;font-weight:normal;font-size:11.9552002px;font-family:CMR12;-inkscape-font-specification:CMR12;writing-mode:lr-tb;fill:#000000;fill-opacity:1;fill-rule:nonzero;stroke:none"
                               transform="matrix(1,0,0,-1,6.475,7.762)"><tspan
                                 id="tspan38"
                                 y="0"
                                 x="0 11.046605">We</tspan></text>
<g
                               transform="translate(6.475,7.762)"
                               id="g42" /></g></g><g
                           transform="translate(8.127)"
                           id="g44" /></g></g></g><g
                     transform="translate(40.133)"
                     id="g46"><g
                       id="g48"><g
                         id="g50"><g
                           transform="translate(-9.299)"
                           id="g52"><g
                             id="g54"><g
                               transform="translate(-45.436,-7.762)"
                               id="g56"><text
                                 id="text60"
                                 style="font-variant:normal;font-weight:normal;font-size:11.9552002px;font-family:CMR12;-inkscape-font-specification:CMR12;writing-mode:lr-tb;fill:#000000;fill-opacity:1;fill-rule:nonzero;stroke:none"
                                 transform="matrix(1,0,0,-1,45.436,7.762)"><tspan
                                   id="tspan58"
                                   y="0"
                                   x="0 4.6170983 10.147573">saw</tspan></text>
<g
                                 transform="translate(45.436,7.762)"
                                 id="g62" /></g></g><g
                             transform="translate(9.299)"
                             id="g64" /></g></g></g><g
                       transform="translate(40.136)"
                       id="g66"><g
                         id="g68"><g
                           id="g70"><g
                             transform="translate(-8.129)"
                             id="g72"><g
                               id="g74"><g
                                 transform="translate(-86.742,-7.762)"
                                 id="g76"><text
                                   id="text80"
                                   style="font-variant:normal;font-weight:normal;font-size:11.9552002px;font-family:CMR12;-inkscape-font-specification:CMR12;writing-mode:lr-tb;fill:#000000;fill-opacity:1;fill-rule:nonzero;stroke:none"
                                   transform="matrix(1,0,0,-1,86.742,7.762)"><tspan
                                   id="tspan78"
                                   y="0"
                                   x="0 6.5036287 11.706532">her</tspan></text>
<g
                                   transform="translate(86.742,7.762)"
                                   id="g82" /></g></g><g
                               transform="translate(8.129)"
                               id="g84" /></g></g></g><g
                         transform="translate(54.93)"
                         id="g86"><g
                           id="g88"><g
                             id="g90"><g
                               transform="translate(-24.095)"
                               id="g92"><g
                                 id="g94"><g
                                   transform="translate(-125.706,-7.762)"
                                   id="g96"><text
                                   id="text100"
                                   style="font-variant:normal;font-weight:normal;font-size:11.9552002px;font-family:CMR12;-inkscape-font-specification:CMR12;writing-mode:lr-tb;fill:#000000;fill-opacity:1;fill-rule:nonzero;stroke:none"
                                   transform="matrix(1,0,0,-1,125.706,7.762)"><tspan
                                   id="tspan98"
                                   y="0"
                                   x="0 5.8556571 11.05856 15.675658 20.228199 25.431101 29.983641 36.48727 42.005791">yesterday</tspan></text>
<g
                                   transform="translate(125.706,7.762)"
                                   id="g102" /></g></g><g
                                 transform="translate(24.095)"
                                 id="g104" /></g></g></g><g
                           transform="translate(58.182)"
                           id="g106"><g
                             id="g108"><g
                               id="g110"><g
                                 transform="translate(-11.381)"
                                 id="g112"><g
                                   id="g114"><g
                                   transform="translate(-196.602,-7.762)"
                                   id="g116"><text
                                   id="text120"
                                   style="font-variant:normal;font-weight:normal;font-size:11.9552002px;font-family:CMR12;-inkscape-font-specification:CMR12;writing-mode:lr-tb;fill:#000000;fill-opacity:1;fill-rule:nonzero;stroke:none"
                                   transform="matrix(1,0,0,-1,196.602,7.762)"><tspan
                                   id="tspan118"
                                   y="0"
                                   x="0 8.4547176 11.706532 16.259071">with</tspan></text>
<g
                                   transform="translate(196.602,7.762)"
                                   id="g122" /></g></g><g
                                   transform="translate(11.381)"
                                   id="g124" /></g></g></g><g
                             transform="translate(60.295)"
                             id="g126"><g
                               id="g128"><g
                                 id="g130"><g
                                   transform="translate(-26.208)"
                                   id="g132"><g
                                   id="g134"><g
                                   transform="translate(-242.07,-7.762)"
                                   id="g136"><text
                                   id="text140"
                                   style="font-variant:normal;font-weight:normal;font-size:11.9552002px;font-family:CMR12;-inkscape-font-specification:CMR12;writing-mode:lr-tb;fill:#000000;fill-opacity:1;fill-rule:nonzero;stroke:none"
                                   transform="matrix(1,0,0,-1,242.07,7.762)"><tspan
                                   id="tspan138"
                                   y="0"
                                   x="0 6.5036287 9.7554436 16.259071 22.435129 27.638031 34.141659 37.393475 43.246742 47.799282">binoculars</tspan></text>
<g
                                   transform="translate(242.07,7.762)"
                                   id="g142" /></g></g><g
                                   transform="translate(26.208)"
                                   id="g144" /></g></g></g><g
                               transform="translate(-264.376)"
                               id="g146" /></g></g></g></g></g></g><g
                   transform="translate(146.579,3.217)"
                   id="g148" /></g></g></g><g
             id="g150"><g
               id="g152"><g
                 id="g154"><path
                   id="path156"
                   style="fill:#ffffff;fill-opacity:1;fill-rule:nonzero;stroke:#000000;stroke-width:0.3985;stroke-linecap:butt;stroke-linejoin:miter;stroke-miterlimit:10;stroke-dasharray:none;stroke-opacity:1"
                   d="m -88.54019,67.174 h -14.41324 c -1.10047,0 -1.99255,-0.8921 -1.99255,-1.99256 v -5.92361 c 0,-1.10048 0.89208,-1.99256 1.99255,-1.99256 h 14.41324 c 1.10048,0 1.99255,0.89208 1.99255,1.99256 v 5.92361 c 0,1.10046 -0.89207,1.99256 -1.99255,1.99256 z" /></g><g
                 transform="matrix(0.7,0,0,0.7,-103.143,59.967)"
                 id="g158"><g
                   id="g160"><g
                     transform="translate(-47.338,-70.946)"
                     id="g162"><text
                       id="text166"
                       style="font-variant:normal;font-weight:normal;font-size:11.9552002px;font-family:CMR12;-inkscape-font-specification:CMR12;writing-mode:lr-tb;fill:#000000;fill-opacity:1;fill-rule:nonzero;stroke:none"
                       transform="matrix(1,0,0,-1,47.338,70.946)"><tspan
                         id="tspan164"
                         y="0"
                         x="0 4.5525403 10.728597 16.581861">root</tspan></text>
<g
                       transform="translate(47.338,70.946)"
                       id="g168" /></g></g><g
                   transform="translate(103.143,-59.967)"
                   id="g170" /></g></g><g
               id="g172"><path
                 id="path174"
                 style="fill:none;stroke:#000000;stroke-width:0.3985;stroke-linecap:round;stroke-linejoin:miter;stroke-miterlimit:10;stroke-dasharray:none;stroke-opacity:1"
                 d="M -95.74681,57.26527 V 9.26947" /><g
                 transform="rotate(-90,-43.23867,52.50814)"
                 id="g176"><g
                   id="g178"><path
                     id="path180"
                     style="fill:#000000;fill-opacity:1;fill-rule:nonzero;stroke:none"
                     d="M 1.99252,0 -1.19551,1.59401 0,0 -1.19551,-1.59401" /></g></g></g></g><g
             id="g182"><g
               id="g184"><g
                 id="g186" /><g
                 id="g188" /><g
                 id="g190" /><g
                 id="g192" /><g
                 id="g194"><path
                   id="path196"
                   style="fill:none;stroke:#000000;stroke-width:0.3985;stroke-linecap:round;stroke-linejoin:miter;stroke-miterlimit:10;stroke-dasharray:none;stroke-opacity:1"
                   d="m -99.73192,7.27695 -2.40161,12.40815 c -0.32429,1.67574 -1.96994,3.03415 -3.67567,3.03415 h -23.99399 c -1.70572,0 -3.35137,-1.35841 -3.67568,-3.03415 l -2.02276,-10.45065" /><g
                   transform="matrix(-0.19014,-0.98242,0.98242,-0.19014,-135.50162,9.23445)"
                   id="g198"><g
                     id="g200"><path
                       id="path202"
                       style="fill:#000000;fill-opacity:1;fill-rule:nonzero;stroke:none"
                       d="M 1.99252,0 -1.19551,1.59401 0,0 -1.19551,-1.59401" /></g></g></g><g
                 id="g204"><g
                   id="g206"><path
                     id="path208"
                     style="fill:#ffffff;fill-opacity:1;fill-rule:nonzero;stroke:#000000;stroke-width:0.3985;stroke-linecap:butt;stroke-linejoin:miter;stroke-miterlimit:10;stroke-dasharray:none;stroke-opacity:1"
                     d="m -110.34918,28.12404 h -14.914 c -1.10048,0 -1.99256,-0.89209 -1.99256,-1.99256 v -5.92362 c 0,-1.10047 0.89208,-1.99256 1.99256,-1.99256 h 14.914 c 1.10048,0 1.99255,0.89209 1.99255,1.99256 v 5.92362 c 0,1.10047 -0.89207,1.99256 -1.99255,1.99256 z" /></g><g
                   transform="matrix(0.7,0,0,0.7,-125.453,20.918)"
                   id="g210"><g
                     id="g212"><g
                       transform="translate(-25.028,-31.897)"
                       id="g214"><text
                         id="text218"
                         style="font-variant:normal;font-weight:normal;font-size:11.9552002px;font-family:CMR12;-inkscape-font-specification:CMR12;writing-mode:lr-tb;fill:#000000;fill-opacity:1;fill-rule:nonzero;stroke:none"
                         transform="matrix(1,0,0,-1,25.028,31.897)"><tspan
                           id="tspan216"
                           y="0"
                           x="0 4.6170983 11.120727 18.269938">subj</tspan></text>
<g
                         transform="translate(25.028,31.897)"
                         id="g220" /></g></g><g
                     transform="translate(125.453,-20.918)"
                     id="g222" /></g></g></g></g><g
             id="g224"><g
               id="g226"><g
                 id="g228" /><g
                 id="g230" /><g
                 id="g232" /><g
                 id="g234" /><g
                 id="g236"><path
                   id="path238"
                   style="fill:none;stroke:#000000;stroke-width:0.3985;stroke-linecap:round;stroke-linejoin:miter;stroke-miterlimit:10;stroke-dasharray:none;stroke-opacity:1"
                   d="m -91.7617,7.27695 2.40161,12.40815 c 0.32429,1.67574 1.96994,3.03415 3.67567,3.03415 h 23.99608 c 1.70572,0 3.35136,-1.35841 3.67566,-3.03415 l 2.02277,-10.45065" /><g
                   transform="matrix(0.19014,-0.98242,0.98242,0.19014,-55.98993,9.23445)"
                   id="g240"><g
                     id="g242"><path
                       id="path244"
                       style="fill:#000000;fill-opacity:1;fill-rule:nonzero;stroke:none"
                       d="M 1.99252,0 -1.19551,1.59401 0,0 -1.19551,-1.59401" /></g></g></g><g
                 id="g246"><g
                   id="g248"><path
                     id="path250"
                     style="fill:#ffffff;fill-opacity:1;fill-rule:nonzero;stroke:#000000;stroke-width:0.3985;stroke-linecap:butt;stroke-linejoin:miter;stroke-miterlimit:10;stroke-dasharray:none;stroke-opacity:1"
                     d="m -68.07307,28.12404 h -11.22658 c -1.10048,0 -1.99255,-0.89209 -1.99255,-1.99256 v -5.92362 c 0,-1.10047 0.89207,-1.99256 1.99255,-1.99256 h 11.22658 c 1.10047,0 1.99255,0.89209 1.99255,1.99256 v 5.92362 c 0,1.10047 -0.89208,1.99256 -1.99255,1.99256 z" /></g><g
                   transform="matrix(0.7,0,0,0.7,-79.49,20.918)"
                   id="g252"><g
                     id="g254"><g
                       transform="translate(-70.991,-31.897)"
                       id="g256"><text
                         id="text260"
                         style="font-variant:normal;font-weight:normal;font-size:11.9552002px;font-family:CMR12;-inkscape-font-specification:CMR12;writing-mode:lr-tb;fill:#000000;fill-opacity:1;fill-rule:nonzero;stroke:none"
                         transform="matrix(1,0,0,-1,70.991,31.897)"><tspan
                           id="tspan258"
                           y="0"
                           x="0 5.8532658 13.002476">obj</tspan></text>
<g
                         transform="translate(70.991,31.897)"
                         id="g262" /></g></g><g
                     transform="translate(79.49,-20.918)"
                     id="g264" /></g></g></g></g><g
             id="g266"><g
               id="g268"><g
                 id="g270" /><g
                 id="g272" /><g
                 id="g274" /><g
                 id="g276" /><g
                 id="g278"><path
                   id="path280"
                   style="fill:none;stroke:#000000;stroke-width:0.3985;stroke-linecap:round;stroke-linejoin:miter;stroke-miterlimit:10;stroke-dasharray:none;stroke-opacity:1"
                   d="m -91.7617,7.27695 2.39354,24.73259 c 0.32876,3.3977 3.36076,6.15202 6.7722,6.15202 h 72.75015 c 3.41144,0 6.44344,-2.75432 6.7722,-6.15202 l 2.20152,-22.7481" /><g
                   transform="matrix(0.09637,-0.99597,0.99597,0.09637,-0.87209,9.26144)"
                   id="g282"><g
                     id="g284"><path
                       id="path286"
                       style="fill:#000000;fill-opacity:1;fill-rule:nonzero;stroke:none"
                       d="M 1.99252,0 -1.19551,1.59401 0,0 -1.19551,-1.59401" /></g></g></g><g
                 id="g288"><g
                   id="g290"><path
                     id="path292"
                     style="fill:#ffffff;fill-opacity:1;fill-rule:nonzero;stroke:#000000;stroke-width:0.3985;stroke-linecap:butt;stroke-linejoin:miter;stroke-miterlimit:10;stroke-dasharray:none;stroke-opacity:1"
                     d="m -32.0719,43.56633 h -28.29794 c -1.10048,0 -1.99256,-0.89209 -1.99256,-1.99255 v -5.92363 c 0,-1.10047 0.89208,-1.99255 1.99256,-1.99255 h 28.29794 c 1.10048,0 1.99255,0.89208 1.99255,1.99255 v 5.92363 c 0,1.10046 -0.89207,1.99255 -1.99255,1.99255 z" /></g><g
                   transform="matrix(0.7,0,0,0.7,-60.56,36.36)"
                   id="g294"><g
                     id="g296"><g
                       transform="translate(-89.921,-47.339)"
                       id="g298"><text
                         id="text302"
                         style="font-variant:normal;font-weight:normal;font-size:11.9552002px;font-family:CMR12;-inkscape-font-specification:CMR12;writing-mode:lr-tb;fill:#000000;fill-opacity:1;fill-rule:nonzero;stroke:none"
                         transform="matrix(1,0,0,-1,89.921,47.339)"><tspan
                           id="tspan300"
                           y="0"
                           x="0 5.8532658 12.356894 18.535341 28.290785 34.466843">advmod</tspan></text>
<g
                         transform="translate(89.921,47.339)"
                         id="g304" /></g></g><g
                     transform="translate(60.56,-36.36)"
                     id="g306" /></g></g></g></g><g
             id="g308"><g
               id="g310"><g
                 id="g312" /><g
                 id="g314" /><g
                 id="g316" /><g
                 id="g318" /><g
                 id="g320"><path
                   id="path322"
                   style="fill:none;stroke:#000000;stroke-width:0.3985;stroke-linecap:round;stroke-linejoin:miter;stroke-miterlimit:10;stroke-dasharray:none;stroke-opacity:1"
                   d="m -91.7617,7.27695 2.39221,36.25419 c 0.32949,4.99445 4.65263,9.04314 9.65608,9.04314 h 185.46404 c 5.00346,0 9.32658,-4.04869 9.65608,-9.04314 l 2.261,-34.26526" /><g
                   transform="matrix(0.06586,-0.9982,0.9982,0.06586,117.66771,9.26588)"
                   id="g324"><g
                     id="g326"><path
                       id="path328"
                       style="fill:#000000;fill-opacity:1;fill-rule:nonzero;stroke:none"
                       d="M 1.99252,0 -1.19551,1.59401 0,0 -1.19551,-1.59401" /></g></g></g><g
                 id="g330"><g
                   id="g332"><path
                     id="path334"
                     style="fill:#ffffff;fill-opacity:1;fill-rule:nonzero;stroke:#000000;stroke-width:0.3985;stroke-linecap:butt;stroke-linejoin:miter;stroke-miterlimit:10;stroke-dasharray:none;stroke-opacity:1"
                     d="M 29.899,57.97905 H -3.86179 c -1.10046,0 -1.99255,-0.89209 -1.99255,-1.99255 v -5.92362 c 0,-1.10048 0.89209,-1.99255 1.99255,-1.99255 H 29.899 c 1.10047,0 1.99256,0.89207 1.99256,1.99255 v 5.92362 c 0,1.10046 -0.89209,1.99255 -1.99256,1.99255 z" /></g><g
                   transform="matrix(0.7,0,0,0.7,-4.053,50.772)"
                   id="g336"><g
                     id="g338"><g
                       transform="translate(-146.428,-61.751)"
                       id="g340"><text
                         id="text344"
                         style="font-variant:normal;font-weight:normal;font-size:11.9552002px;font-family:CMR12;-inkscape-font-specification:CMR12;writing-mode:lr-tb;fill:#000000;fill-opacity:1;fill-rule:nonzero;stroke:none"
                         transform="matrix(1,0,0,-1,146.428,61.751)"><tspan
                           id="tspan342"
                           y="0"
                           x="0 5.8532658 13.002476 16.579472 19.831285 26.334915 36.090359 42.266415">obj.nmod</tspan></text>
<g
                         transform="translate(146.428,61.751)"
                         id="g346" /></g></g><g
                     transform="translate(4.053,-50.772)"
                     id="g348" /></g></g></g></g><g
             id="g350"><g
               id="g352"><g
                 id="g354" /><g
                 id="g356" /><g
                 id="g358" /><g
                 id="g360" /><g
                 id="g362"><path
                   id="path364"
                   style="fill:none;stroke:#000000;stroke-width:0.3985;stroke-linecap:round;stroke-linejoin:miter;stroke-miterlimit:10;stroke-dasharray:none;stroke-opacity:1"
                   d="M 113.81381,7.27695 111.4122,19.6851 c -0.3243,1.67574 -1.96994,3.03415 -3.67566,3.03415 H 63.5799 c -1.70572,0 -3.35137,-1.35841 -3.67568,-3.03415 L 57.88147,9.23445" /><g
                   transform="matrix(-0.19014,-0.98242,0.98242,-0.19014,57.88148,9.23445)"
                   id="g366"><g
                     id="g368"><path
                       id="path370"
                       style="fill:#000000;fill-opacity:1;fill-rule:nonzero;stroke:none"
                       d="M 1.99252,0 -1.19551,1.59401 0,0 -1.19551,-1.59401" /></g></g></g><g
                 id="g372"><g
                   id="g374"><path
                     id="path376"
                     style="fill:#ffffff;fill-opacity:1;fill-rule:nonzero;stroke:#000000;stroke-width:0.3985;stroke-linecap:butt;stroke-linejoin:miter;stroke-miterlimit:10;stroke-dasharray:none;stroke-opacity:1"
                     d="M 92.77377,28.12404 H 78.54262 c -1.10047,0 -1.99256,-0.89209 -1.99256,-1.99256 v -5.92362 c 0,-1.10047 0.89209,-1.99256 1.99256,-1.99256 h 14.23115 c 1.10048,0 1.99256,0.89209 1.99256,1.99256 v 5.92362 c 0,1.10047 -0.89208,1.99256 -1.99256,1.99256 z" /></g><g
                   transform="matrix(0.7,0,0,0.7,78.351,20.918)"
                   id="g378"><g
                     id="g380"><g
                       transform="translate(-228.832,-31.897)"
                       id="g382"><text
                         id="text386"
                         style="font-variant:normal;font-weight:normal;font-size:11.9552002px;font-family:CMR12;-inkscape-font-specification:CMR12;writing-mode:lr-tb;fill:#000000;fill-opacity:1;fill-rule:nonzero;stroke:none"
                         transform="matrix(1,0,0,-1,228.832,31.897)"><tspan
                           id="tspan384"
                           y="0"
                           x="0 5.2029033 11.056169 15.673267">case</tspan></text>
<g
                         transform="translate(228.832,31.897)"
                         id="g388" /></g></g><g
                     transform="translate(-78.351,-20.918)"
                     id="g390" /></g></g></g></g></g></g></g></g></svg>